<svg width="191.6px" height="238.880029296875px" xmlns="http://www.w3.org/2000/svg" viewBox="154.2 -44.4400146484375 191.6 238.880029296875" style="background: rgb(255, 255, 255);" preserveAspectRatio="xMidYMid"><defs><filter id="editing-vintage" x="-100%" y="-100%" width="300%" height="300%"><feConvolveMatrix in="SourceGraphic" result="extrude" order="1,1" divisor="1" kernelMatrix="1"> </feConvolveMatrix><feFlood flood-color="#900" result="flood-extrude"></feFlood><feComposite operator="in" in="flood-extrude" in2="extrude" result="extrude-color"></feComposite><feOffset dx="1" dy="1" in="extrude-color" result="extrude-offset"></feOffset><feColorMatrix in="SourceGraphic" result="stroke" type="matrix" values="0 0 0 0 0 0 0 0 0 0 0 0 0 0 0 0 1 0 0 0 "></feColorMatrix><feColorMatrix in="SourceGraphic" result="fill" type="matrix" values="0 0 0 0 0 0 0 0 0 0 0 0 0 0 0 1 0 0 1 0 "></feColorMatrix><feConvolveMatrix in="stroke" result="inner-shadow" order="5,5" divisor="1" kernelMatrix="1 0 0 0 0 0 1 0 0 0 0 0 1 0 0 0 0 0 1 0 0 0 0 0 1 "></feConvolveMatrix><feOffset dx="1" dy="1" in="inner-shadow" result="offset"></feOffset><feComposite operator="in" in="offset" in2="SourceAlpha" result="comp"></feComposite><feFlood flood-color="#000" result="flood3"></feFlood><feComposite operator="in" in="flood3" in2="comp" result="comp2"></feComposite><feColorMatrix in="comp2" result="comp3" type="matrix" values="1 0 0 0 0 0 1 0 0 0 0 0 1 0 0 0 0 0 0.5 0 "></feColorMatrix><feFlood flood-color="#f00" result="flood1"></feFlood><feComposite operator="in" in="flood1" in2="fill" result="fill2"></feComposite><feFlood flood-color="#fff" result="flood2"></feFlood><feComposite operator="in" in="flood2" in2="stroke" result="stroke2"></feComposite><feMerge result="obj"><feMergeNode in="extrude-offset"></feMergeNode><feMergeNode in="fill2"></feMergeNode><feMergeNode in="comp3"></feMergeNode></feMerge><feConvolveMatrix in="SourceAlpha" result="shadow" order="1,1" divisor="1" kernelMatrix="1"></feConvolveMatrix><feOffset dx="3" dy="3" in="shadow" result="shadow-offset"></feOffset><feFlood flood-color="#444444" result="flood-shadow"></feFlood><feComposite operator="in" in="flood-shadow" in2="shadow-offset" result="shadow-color"></feComposite><feMerge><feMergeNode in="shadow-color"></feMergeNode><feMergeNode in="obj"></feMergeNode></feMerge></filter></defs><g transform="translate(-1,-1)"><g filter="url(#editing-vintage)"><g transform="translate(186.85502552986145, 123.85000276565552)"><path d="M46.36-50.89L46.36-50.89L46.42-27.08L46.42-27.08Q46.42-15.68 40.69-7.81L40.69-7.81L40.69-7.81Q33.95 1.26 21.92 1.26L21.92 1.26L21.92 1.26Q12.47 1.26 6.80-5.04L6.80-5.04L6.80-5.04Q1.64-10.77 1.64-18.90L1.64-18.90L1.64-18.90Q4.47-25.45 7.68-28.91L7.68-28.91L7.68-28.91Q12.98-34.64 16.50-35.27L16.50-35.27L16.50-35.27Q15.50-29.54 15.50-24.75L15.50-24.75L15.50-24.75Q15.50-19.97 15.90-16.66L15.90-16.66L15.90-16.66Q16.31-13.35 17.26-10.77L17.26-10.77L17.26-10.77Q19.34-5.04 23.81-5.04L23.81-5.04L23.81-5.04Q27.71-5.04 29.73-10.08L29.73-10.08L29.73-10.08Q31.43-14.24 31.43-21.23L31.43-21.23L31.43-36.34L31.43-36.34Q31.43-63.68 31.05-82.39L31.05-82.39L31.05-82.39Q30.93-87.36 29.57-90.61L29.57-90.61L29.57-90.61Q28.22-93.85 25.01-96.37L25.01-96.37L49.89-96.37L49.89-96.37Q48.00-92.97 47.59-89.07L47.59-89.07L47.59-89.07Q47.18-85.16 46.86-80.50L46.86-80.50L46.86-80.50Q46.36-71.62 46.36-50.89ZM54.99-96.37L76.97-96.37L76.97-96.37Q75.90-92.91 75.90-89.82L75.90-89.82L75.90-89.82Q75.90-84.59 77.73-74.70L77.73-74.70L77.73-74.70Q85.41-36.09 86.67-30.11L86.67-30.11L86.67-30.11Q89.32-17.76 89.92-15.15L89.92-15.15L89.92-15.15Q90.51-12.53 91.02-10.14L91.02-10.14L91.02-10.14Q102.73-24.06 107.21-48.12L107.21-48.12L107.21-48.12Q108.84-56.94 108.84-64.75L108.84-64.75L108.84-64.75Q108.84-72.56 108.53-76.85L108.53-76.85L108.53-76.85Q108.21-81.13 107.46-84.66L107.46-84.66L107.46-84.66Q105.95-91.71 102.67-96.44L102.67-96.44L124.65-96.44L124.65-96.44Q123.33-92.66 123.27-88.88L123.27-88.88L123.27-88.88Q123.21-85.10 123.02-77.38L123.02-77.38L123.02-77.38Q122.83-69.67 121.06-59.02L121.06-59.02L121.06-59.02Q119.30-48.38 116.65-40.00L116.65-40.00L116.65-40.00Q114.01-31.62 110.80-25.26L110.80-25.26L110.80-25.26Q107.58-18.90 104.37-14.11L104.37-14.11L104.37-14.11Q101.16-9.32 98.26-5.92L98.26-5.92L93.35 0L73.51 0L73.51 0Q74.45-2.39 74.45-4.66L74.45-4.66L74.45-4.66Q74.45-8.38 73.44-15.56L73.44-15.56L73.44-15.56Q62.67-87.49 54.99-96.37L54.99-96.37Z" fill="#f00" stroke="#0f0" stroke-width="1.8"></path></g></g><g><g transform="translate(186.8549988269806, 123.85000324249268)"><path d="M46.36-50.89L46.36-50.89L46.42-27.08L46.42-27.08Q46.42-15.68 40.69-7.81L40.69-7.81L40.69-7.81Q33.95 1.26 21.92 1.26L21.92 1.26L21.92 1.26Q12.47 1.26 6.80-5.04L6.80-5.04L6.80-5.04Q1.64-10.77 1.64-18.90L1.64-18.90L1.64-18.90Q4.47-25.45 7.68-28.91L7.68-28.91L7.68-28.91Q12.98-34.64 16.50-35.27L16.50-35.27L16.50-35.27Q15.50-29.54 15.50-24.75L15.50-24.75L15.50-24.75Q15.50-19.97 15.90-16.66L15.90-16.66L15.90-16.66Q16.31-13.35 17.26-10.77L17.26-10.77L17.26-10.77Q19.34-5.04 23.81-5.04L23.81-5.04L23.81-5.04Q27.71-5.04 29.73-10.08L29.73-10.08L29.73-10.08Q31.43-14.24 31.43-21.23L31.43-21.23L31.43-36.34L31.43-36.34Q31.43-63.68 31.05-82.39L31.05-82.39L31.05-82.39Q30.93-87.36 29.57-90.61L29.57-90.61L29.57-90.61Q28.22-93.85 25.01-96.37L25.01-96.37L49.89-96.37L49.89-96.37Q48.00-92.97 47.59-89.07L47.59-89.07L47.59-89.07Q47.18-85.16 46.86-80.50L46.86-80.50L46.86-80.50Q46.36-71.62 46.36-50.89ZM54.99-96.37L76.97-96.37L76.97-96.37Q75.90-92.91 75.90-89.82L75.90-89.82L75.90-89.82Q75.90-84.59 77.73-74.70L77.73-74.70L77.73-74.70Q85.41-36.09 86.67-30.11L86.67-30.11L86.67-30.11Q89.32-17.76 89.92-15.15L89.92-15.15L89.92-15.15Q90.51-12.53 91.02-10.14L91.02-10.14L91.02-10.14Q102.73-24.06 107.21-48.12L107.21-48.12L107.21-48.12Q108.84-56.94 108.84-64.75L108.84-64.75L108.84-64.75Q108.84-72.56 108.53-76.85L108.53-76.85L108.53-76.85Q108.21-81.13 107.46-84.66L107.46-84.66L107.46-84.66Q105.95-91.71 102.67-96.44L102.67-96.44L124.65-96.44L124.65-96.44Q123.33-92.66 123.27-88.88L123.27-88.88L123.27-88.88Q123.21-85.10 123.02-77.38L123.02-77.38L123.02-77.38Q122.83-69.67 121.06-59.02L121.06-59.02L121.06-59.02Q119.30-48.38 116.65-40.00L116.65-40.00L116.65-40.00Q114.01-31.62 110.80-25.26L110.80-25.26L110.80-25.26Q107.58-18.90 104.37-14.11L104.37-14.11L104.37-14.11Q101.16-9.32 98.26-5.92L98.26-5.92L93.35 0L73.51 0L73.51 0Q74.45-2.39 74.45-4.66L74.45-4.66L74.45-4.66Q74.45-8.38 73.44-15.56L73.44-15.56L73.44-15.56Q62.67-87.49 54.99-96.37L54.99-96.37Z" fill="none" stroke="#fff" stroke-width="2.1"></path></g></g></g><style>text {
  font-size: 64px;
  font-family: Arial Black;
  dominant-baseline: central;
  text-anchor: middle;
}</style></svg>